<svg xmlns="http://www.w3.org/2000/svg" width="309" height="70.4721189591078" viewBox="0 0 309 70.4721189591078" class="editor-view__logo-preview" data-v-719f541d="" data-v-75053935=""><svg id="mark" viewBox="0 0 538 534" width="71" height="70.4721189591078" style="fill: rgb(0, 0, 0);" x="0" y="0" data-v-719f541d=""><rect x="0" y="0" width="100%" height="100%" fill="none" data-v-719f541d=""></rect><g data-v-719f541d="">
	<path xmlns="http://www.w3.org/2000/svg" d="M 263.574 14.155 C 258.627 24.815, 243.825 59.785, 242.553 63.819 L 241.821 66.138 257.161 65.480 C 266.119 65.097, 277.045 65.272, 283.425 65.903 C 289.434 66.497, 294.561 66.772, 294.819 66.515 C 295.076 66.258, 294.365 63.899, 293.238 61.274 C 292.112 58.648, 286.394 45.025, 280.532 31 C 274.671 16.975, 269.526 5.145, 269.099 4.712 C 268.672 4.278, 266.186 8.528, 263.574 14.155 M 219 61.133 C 176.844 70.813, 134.603 95.662, 107.391 126.787 C 93.159 143.066, 80.019 164.638, 71.932 185 C 67.185 196.953, 62 216.324, 62 222.107 C 62 225.851, 62.127 226, 65.327 226 C 68.638 226, 68.660 225.968, 69.871 219.395 C 71.818 208.831, 78.580 189.481, 84.861 176.500 C 104.524 135.863, 134.067 106.342, 176.124 85.306 C 191.049 77.841, 212.408 70.464, 224.820 68.488 C 229.307 67.774, 229.464 67.598, 230.388 62.250 C 231.059 58.367, 231.048 58.366, 219 61.133 M 306.493 62.827 C 307.450 67.953, 308.195 68.563, 315.261 70.005 C 329.742 72.961, 354.989 83.434, 372.820 93.881 C 389.345 103.563, 414.678 125.481, 426.704 140.500 C 440.982 158.332, 454.271 183.121, 461.283 205 C 463.839 212.975, 466.179 220.738, 466.484 222.250 C 466.959 224.606, 467.528 225, 470.460 225 C 472.342 225, 474.125 224.608, 474.421 224.128 C 475.229 222.821, 470.380 205.033, 465.807 192.527 C 448.194 144.360, 409.431 101.989, 360.857 77.807 C 348.888 71.849, 325.643 63.592, 312.653 60.686 L 305.806 59.154 306.493 62.827 M 239.984 84.441 C 189.118 91.734, 143.688 119.632, 114.412 161.555 C 70.159 224.925, 73.104 315.808, 121.486 379.820 C 139.743 403.974, 161.926 422.192, 189.105 435.350 C 216.223 448.480, 236.475 453.248, 265 453.222 C 310.609 453.179, 348.616 439.698, 383.934 411.037 C 415.532 385.395, 436.614 352.374, 446.433 313.143 C 450.655 296.277, 451.471 288.592, 451.444 266 C 451.414 240.570, 449.580 228.500, 442.534 207.363 C 432.805 178.178, 418.940 156.493, 396.129 134.786 C 369.944 109.867, 339.753 94.242, 302.659 86.411 C 292.466 84.259, 287.185 83.782, 270 83.461 C 256.064 83.200, 246.453 83.514, 239.984 84.441 M 253.532 128.060 C 224.988 131.226, 198.424 142.901, 177.053 161.673 C 134.665 198.908, 118.968 257.155, 136.970 310.413 C 148.611 344.850, 172.945 373.497, 204.175 389.526 C 225.293 400.366, 244.852 405.155, 268 405.155 C 303.977 405.155, 335.208 392.410, 361.343 367.063 C 386.472 342.693, 400.409 314.335, 404.133 280.002 C 407.506 248.906, 397.390 212.153, 377.852 184.515 C 357.576 155.833, 324.919 135.213, 291 129.675 C 278.419 127.620, 263.352 126.971, 253.532 128.060 M 251.500 157.714 C 239.516 159.370, 221.800 165.583, 211.546 171.724 C 178.313 191.629, 159.029 223.212, 157.286 260.589 C 156.145 285.084, 162.001 305.958, 176.054 327.486 C 185.272 341.606, 205.919 359.806, 220 366.223 C 236.919 373.933, 250.387 377, 267.319 377 C 285.262 377, 300.684 373.263, 317.635 364.807 C 338.893 354.202, 358.704 332.803, 367.690 310.739 C 374.780 293.332, 377.772 268.578, 375.047 249.886 C 371.745 227.234, 361.732 206.741, 346.113 190.664 C 328.850 172.896, 309.751 162.757, 285.615 158.548 C 277.488 157.131, 258.993 156.679, 251.500 157.714 M 469.601 235.250 C 470.006 236.488, 470.598 247.922, 470.918 260.659 L 471.500 283.818 475 282.514 C 497.916 273.975, 533.431 259.932, 534.325 259.057 C 535.158 258.242, 526.723 254.431, 512.330 249.119 C 503.244 245.766, 482.618 237.757, 475.815 234.940 C 469.687 232.403, 468.686 232.453, 469.601 235.250 M 55 238.621 C 49.225 241.144, 41.769 244.399, 38.430 245.854 C 30.276 249.409, 21.046 255.202, 21.020 256.781 C 21.009 257.486, 21.675 258.322, 22.500 258.638 C 23.348 258.964, 24 260.453, 24 262.065 C 24 264.388, 24.836 265.406, 28.521 267.565 C 31.007 269.022, 36.744 271.553, 41.271 273.190 C 54.256 277.886, 58.271 279.480, 61.700 281.301 C 63.461 282.235, 65.036 283, 65.200 282.999 C 65.365 282.999, 65.511 274.337, 65.524 263.749 C 65.537 253.162, 65.890 242.137, 66.309 239.250 C 66.727 236.363, 66.716 234.007, 66.284 234.016 C 65.853 234.025, 60.775 236.097, 55 238.621 M 204.564 258.250 C 204.949 259.488, 207.056 264.100, 209.248 268.500 C 222.942 295.997, 242.029 309.398, 267.500 309.398 C 293.128 309.398, 311.912 296.035, 326.516 267.413 C 328.982 262.580, 331 258.056, 331 257.359 C 331 256.603, 326.262 258.497, 319.250 262.054 C 312.659 265.399, 303.988 268.904, 299.500 270.038 C 281.287 274.641, 258.176 274.979, 240.791 270.897 C 230.693 268.526, 215.620 262.679, 209.264 258.667 C 204.126 255.423, 203.673 255.383, 204.564 258.250 M 7.500 258.022 C 5.729 258.685, 5.844 258.851, 8.500 259.469 C 10.150 259.853, 12.100 260.355, 12.834 260.584 C 14.936 261.242, 13.622 258.773, 11.449 257.983 C 10.377 257.593, 8.600 257.611, 7.500 258.022 M 472.423 289.710 C 469.361 290.099, 469.341 290.140, 468.180 298.800 C 461.729 346.889, 435.157 392.191, 394.358 424.658 C 371.501 442.846, 348.836 454.547, 321.314 462.367 L 309.602 465.694 308.197 469.910 C 307.424 472.228, 307.033 474.366, 307.328 474.661 C 308.221 475.554, 329.634 469.203, 341.899 464.407 C 372.260 452.536, 397.213 435.976, 419.538 412.883 C 450.660 380.692, 469.331 344.075, 475.472 303.185 C 477.184 291.787, 477.343 288.927, 476.250 289.160 C 475.837 289.248, 474.116 289.496, 472.423 289.710 M 60 291.950 C 60 293.090, 60.705 298.403, 61.567 303.759 C 68.307 345.645, 85.924 380.953, 116.500 413.853 C 133.605 432.258, 165.982 453.820, 191.500 463.801 C 200.219 467.211, 220.291 473.401, 226.260 474.521 C 230.556 475.327, 230.976 474.272, 228.612 468.614 C 227.428 465.781, 226.581 465.190, 222.862 464.603 C 214.892 463.345, 191.949 455.088, 179.481 448.991 C 121.391 420.582, 80.387 366.425, 69.705 304 L 67.395 290.500 63.697 290.190 C 60.524 289.923, 60 290.173, 60 291.950 M 243.513 468.104 C 243.920 469.422, 244.825 471.625, 245.523 473 C 246.221 474.375, 250.194 484.313, 254.353 495.084 C 267.831 529.998, 268.851 531.996, 271.085 527.867 C 272.984 524.355, 295.869 466.553, 295.507 466.182 C 295.336 466.006, 290.540 466.407, 284.848 467.071 C 274.802 468.244, 250.419 467.804, 245.136 466.355 C 243.009 465.772, 242.846 465.947, 243.513 468.104" stroke="none" fill="inherit" fill-rule="evenodd"></path>
</g></svg><svg id="name" viewBox="0 0 222.98500061035156 42.48099899291992" width="222" height="42.293345967730616" style="fill: rgb(0, 0, 0);" x="87" y="14.089386495688593" data-v-719f541d=""><rect x="0" y="0" width="100%" height="100%" fill="none" data-v-719f541d=""></rect><g data-v-719f541d=""><path xmlns="http://www.w3.org/2000/svg" d="M17.20 29.62L17.20 29.62Q19.30 29.62 20.85 29.24Q22.40 28.86 23.80 28.20L23.80 28.20L23.80 22.15L19.64 22.15Q19.04 22.15 18.70 21.82Q18.35 21.48 18.35 21.00L18.35 21.00L18.35 17.50L29.42 17.50L29.42 30.96Q28.15 31.88 26.78 32.56Q25.42 33.23 23.86 33.67Q22.31 34.11 20.54 34.33Q18.77 34.55 16.72 34.55L16.72 34.55Q13.09 34.55 10.03 33.28Q6.97 32.02 4.74 29.76Q2.51 27.51 1.25 24.38Q0 21.25 0 17.55L0 17.55Q0 13.80 1.22 10.67Q2.44 7.54 4.68 5.29Q6.92 3.04 10.12 1.79Q13.32 0.55 17.30 0.55L17.30 0.55Q21.37 0.55 24.35 1.76Q27.32 2.97 29.39 4.90L29.39 4.90L27.60 7.70Q27.07 8.56 26.20 8.56L26.20 8.56Q25.64 8.56 25.07 8.19L25.07 8.19Q24.33 7.75 23.56 7.31Q22.79 6.88 21.86 6.55Q20.93 6.23 19.77 6.03Q18.61 5.82 17.09 5.82L17.09 5.82Q14.63 5.82 12.64 6.65Q10.65 7.47 9.25 9.02Q7.84 10.56 7.08 12.72Q6.32 14.88 6.32 17.55L6.32 17.55Q6.32 20.42 7.13 22.67Q7.94 24.91 9.38 26.45Q10.83 27.99 12.83 28.81Q14.83 29.62 17.20 29.62ZM35.24 10.58L40.92 10.58L40.92 34.18L35.24 34.18L35.24 10.58ZM41.77 3.70L41.77 3.70Q41.77 4.44 41.47 5.08Q41.17 5.73 40.68 6.21Q40.18 6.69 39.51 6.98Q38.85 7.27 38.09 7.27L38.09 7.27Q37.35 7.27 36.70 6.98Q36.04 6.69 35.56 6.21Q35.08 5.73 34.79 5.08Q34.50 4.44 34.50 3.70L34.50 3.70Q34.50 2.94 34.79 2.28Q35.08 1.61 35.56 1.13Q36.04 0.64 36.70 0.36Q37.35 0.07 38.09 0.07L38.09 0.07Q38.85 0.07 39.51 0.36Q40.18 0.64 40.68 1.13Q41.17 1.61 41.47 2.28Q41.77 2.94 41.77 3.70ZM55.50 10.17L55.50 10.17Q57.02 10.17 58.35 10.48Q59.69 10.79 60.79 11.38L60.79 11.38L67.57 11.38L67.57 13.50Q67.57 14.03 67.30 14.33Q67.02 14.63 66.36 14.74L66.36 14.74L64.24 15.13Q64.47 15.73 64.60 16.40Q64.72 17.07 64.72 17.80L64.72 17.80Q64.72 19.55 64.02 20.96Q63.32 22.38 62.09 23.37Q60.86 24.36 59.17 24.90Q57.48 25.44 55.50 25.44L55.50 25.44Q54.16 25.44 52.90 25.18L52.90 25.18Q51.80 25.85 51.80 26.68L51.80 26.68Q51.80 27.39 52.45 27.73Q53.11 28.06 54.18 28.20Q55.25 28.34 56.60 28.37Q57.96 28.40 59.39 28.52Q60.81 28.63 62.17 28.92Q63.53 29.21 64.60 29.83Q65.67 30.45 66.32 31.52Q66.98 32.59 66.98 34.27L66.98 34.27Q66.98 35.83 66.21 37.31Q65.44 38.78 63.97 39.93Q62.51 41.08 60.40 41.78Q58.28 42.48 55.57 42.48L55.57 42.48Q52.88 42.48 50.90 41.96Q48.92 41.45 47.62 40.58Q46.32 39.72 45.68 38.59Q45.03 37.47 45.03 36.25L45.03 36.25Q45.03 34.59 46.05 33.46Q47.06 32.34 48.85 31.67L48.85 31.67Q47.98 31.19 47.45 30.38Q46.92 29.58 46.92 28.29L46.92 28.29Q46.92 27.76 47.10 27.20Q47.29 26.63 47.67 26.08Q48.05 25.53 48.62 25.04Q49.20 24.54 49.98 24.15L49.98 24.15Q48.19 23.18 47.16 21.57Q46.14 19.96 46.14 17.80L46.14 17.80Q46.14 16.05 46.84 14.64Q47.54 13.22 48.79 12.22Q50.05 11.22 51.76 10.69Q53.48 10.17 55.50 10.17ZM61.73 35.24L61.73 35.24Q61.73 34.55 61.32 34.11Q60.90 33.67 60.19 33.43Q59.48 33.19 58.52 33.07Q57.57 32.96 56.50 32.90Q55.43 32.84 54.29 32.79Q53.15 32.73 52.09 32.59L52.09 32.59Q51.13 33.12 50.54 33.84Q49.96 34.57 49.96 35.51L49.96 35.51Q49.96 36.13 50.27 36.67Q50.58 37.21 51.26 37.60Q51.93 38.00 53.02 38.21Q54.10 38.43 55.66 38.43L55.66 38.43Q57.25 38.43 58.40 38.19Q59.55 37.95 60.29 37.52Q61.04 37.10 61.39 36.51Q61.73 35.93 61.73 35.24ZM55.50 21.80L55.50 21.80Q56.56 21.80 57.34 21.52Q58.12 21.23 58.64 20.72Q59.16 20.22 59.42 19.50Q59.69 18.79 59.69 17.94L59.69 17.94Q59.69 16.19 58.64 15.17Q57.59 14.14 55.50 14.14L55.50 14.14Q53.41 14.14 52.36 15.17Q51.31 16.19 51.31 17.94L51.31 17.94Q51.31 18.77 51.58 19.48Q51.84 20.19 52.36 20.71Q52.88 21.23 53.67 21.52Q54.46 21.80 55.50 21.80ZM79.30 10.17L79.30 10.17Q80.82 10.17 82.16 10.48Q83.49 10.79 84.59 11.38L84.59 11.38L91.38 11.38L91.38 13.50Q91.38 14.03 91.10 14.33Q90.83 14.63 90.16 14.74L90.16 14.74L88.04 15.13Q88.27 15.73 88.40 16.40Q88.53 17.07 88.53 17.80L88.53 17.80Q88.53 19.55 87.83 20.96Q87.12 22.38 85.89 23.37Q84.66 24.36 82.97 24.90Q81.28 25.44 79.30 25.44L79.30 25.44Q77.97 25.44 76.71 25.18L76.71 25.18Q75.60 25.85 75.60 26.68L75.60 26.68Q75.60 27.39 76.26 27.73Q76.91 28.06 77.98 28.20Q79.05 28.34 80.41 28.37Q81.77 28.40 83.19 28.52Q84.62 28.63 85.97 28.92Q87.33 29.21 88.40 29.83Q89.47 30.45 90.13 31.52Q90.78 32.59 90.78 34.27L90.78 34.27Q90.78 35.83 90.01 37.31Q89.24 38.78 87.78 39.93Q86.32 41.08 84.20 41.78Q82.09 42.48 79.37 42.48L79.37 42.48Q76.68 42.48 74.70 41.96Q72.73 41.45 71.43 40.58Q70.13 39.72 69.48 38.59Q68.84 37.47 68.84 36.25L68.84 36.25Q68.84 34.59 69.85 33.46Q70.86 32.34 72.66 31.67L72.66 31.67Q71.78 31.19 71.25 30.38Q70.73 29.58 70.73 28.29L70.73 28.29Q70.73 27.76 70.91 27.20Q71.09 26.63 71.47 26.08Q71.85 25.53 72.43 25.04Q73.00 24.54 73.78 24.15L73.78 24.15Q71.99 23.18 70.97 21.57Q69.94 19.96 69.94 17.80L69.94 17.80Q69.94 16.05 70.64 14.64Q71.35 13.22 72.60 12.22Q73.85 11.22 75.57 10.69Q77.28 10.17 79.30 10.17ZM85.54 35.24L85.54 35.24Q85.54 34.55 85.12 34.11Q84.71 33.67 84.00 33.43Q83.28 33.19 82.33 33.07Q81.37 32.96 80.30 32.90Q79.24 32.84 78.10 32.79Q76.96 32.73 75.90 32.59L75.90 32.59Q74.93 33.12 74.35 33.84Q73.76 34.57 73.76 35.51L73.76 35.51Q73.76 36.13 74.07 36.67Q74.38 37.21 75.06 37.60Q75.74 38.00 76.82 38.21Q77.90 38.43 79.47 38.43L79.47 38.43Q81.05 38.43 82.20 38.19Q83.35 37.95 84.10 37.52Q84.85 37.10 85.19 36.51Q85.54 35.93 85.54 35.24ZM79.30 21.80L79.30 21.80Q80.36 21.80 81.14 21.52Q81.93 21.23 82.44 20.72Q82.96 20.22 83.23 19.50Q83.49 18.79 83.49 17.94L83.49 17.94Q83.49 16.19 82.44 15.17Q81.40 14.14 79.30 14.14L79.30 14.14Q77.21 14.14 76.16 15.17Q75.12 16.19 75.12 17.94L75.12 17.94Q75.12 18.77 75.38 19.48Q75.65 20.19 76.16 20.71Q76.68 21.23 77.48 21.52Q78.27 21.80 79.30 21.80ZM95.31 0L100.99 0L100.99 34.18L95.31 34.18L95.31 0ZM117.16 10.21L117.16 10.21Q119.39 10.21 121.27 10.92Q123.14 11.64 124.50 13.01Q125.86 14.37 126.62 16.36Q127.37 18.35 127.37 20.91L127.37 20.91Q127.37 21.55 127.32 21.98Q127.26 22.40 127.11 22.64Q126.96 22.88 126.71 22.99Q126.45 23.09 126.06 23.09L126.06 23.09L111.48 23.09Q111.73 26.73 113.44 28.43Q115.14 30.13 117.94 30.13L117.94 30.13Q119.32 30.13 120.32 29.81Q121.33 29.49 122.07 29.09Q122.82 28.70 123.38 28.38Q123.95 28.06 124.48 28.06L124.48 28.06Q124.82 28.06 125.07 28.20Q125.33 28.34 125.51 28.59L125.51 28.59L127.17 30.66Q126.22 31.76 125.05 32.51Q123.88 33.26 122.60 33.71Q121.33 34.15 120.00 34.34Q118.68 34.52 117.44 34.52L117.44 34.52Q114.98 34.52 112.86 33.71Q110.75 32.89 109.18 31.29Q107.62 29.69 106.72 27.34Q105.82 24.98 105.82 21.87L105.82 21.87Q105.82 19.46 106.61 17.33Q107.39 15.20 108.85 13.63Q110.31 12.05 112.41 11.13Q114.52 10.21 117.16 10.21ZM117.28 14.28L117.28 14.28Q114.79 14.28 113.39 15.69Q111.99 17.09 111.60 19.66L111.60 19.66L122.27 19.66Q122.27 18.56 121.97 17.58Q121.67 16.61 121.05 15.87Q120.43 15.13 119.49 14.71Q118.54 14.28 117.28 14.28ZM147.59 29.62L147.59 29.62Q149.68 29.62 151.24 29.24Q152.79 28.86 154.19 28.20L154.19 28.20L154.19 22.15L150.03 22.15Q149.43 22.15 149.09 21.82Q148.74 21.48 148.74 21.00L148.74 21.00L148.74 17.50L159.80 17.50L159.80 30.96Q158.54 31.88 157.17 32.56Q155.80 33.23 154.25 33.67Q152.70 34.11 150.93 34.33Q149.16 34.55 147.11 34.55L147.11 34.55Q143.47 34.55 140.42 33.28Q137.36 32.02 135.13 29.76Q132.89 27.51 131.64 24.38Q130.39 21.25 130.39 17.55L130.39 17.55Q130.39 13.80 131.61 10.67Q132.83 7.54 135.07 5.29Q137.31 3.04 140.51 1.79Q143.70 0.55 147.68 0.55L147.68 0.55Q151.75 0.55 154.73 1.76Q157.71 2.97 159.78 4.90L159.78 4.90L157.99 7.70Q157.46 8.56 156.58 8.56L156.58 8.56Q156.03 8.56 155.46 8.19L155.46 8.19Q154.72 7.75 153.95 7.31Q153.18 6.88 152.25 6.55Q151.32 6.23 150.16 6.03Q148.99 5.82 147.48 5.82L147.48 5.82Q145.02 5.82 143.03 6.65Q141.04 7.47 139.63 9.02Q138.23 10.56 137.47 12.72Q136.71 14.88 136.71 17.55L136.71 17.55Q136.71 20.42 137.52 22.67Q138.32 24.91 139.77 26.45Q141.22 27.99 143.22 28.81Q145.22 29.62 147.59 29.62ZM175.01 10.21L175.01 10.21Q177.24 10.21 179.11 10.92Q180.99 11.64 182.34 13.01Q183.70 14.37 184.46 16.36Q185.22 18.35 185.22 20.91L185.22 20.91Q185.22 21.55 185.16 21.98Q185.10 22.40 184.95 22.64Q184.81 22.88 184.55 22.99Q184.30 23.09 183.91 23.09L183.91 23.09L169.33 23.09Q169.58 26.73 171.28 28.43Q172.98 30.13 175.79 30.13L175.79 30.13Q177.17 30.13 178.17 29.81Q179.17 29.49 179.92 29.09Q180.67 28.70 181.23 28.38Q181.79 28.06 182.32 28.06L182.32 28.06Q182.67 28.06 182.92 28.20Q183.17 28.34 183.36 28.59L183.36 28.59L185.01 30.66Q184.07 31.76 182.90 32.51Q181.72 33.26 180.45 33.71Q179.17 34.15 177.85 34.34Q176.53 34.52 175.28 34.52L175.28 34.52Q172.82 34.52 170.71 33.71Q168.59 32.89 167.03 31.29Q165.46 29.69 164.57 27.34Q163.67 24.98 163.67 21.87L163.67 21.87Q163.67 19.46 164.45 17.33Q165.23 15.20 166.69 13.63Q168.15 12.05 170.26 11.13Q172.36 10.21 175.01 10.21ZM175.12 14.28L175.12 14.28Q172.64 14.28 171.24 15.69Q169.83 17.09 169.44 19.66L169.44 19.66L180.11 19.66Q180.11 18.56 179.81 17.58Q179.52 16.61 178.89 15.87Q178.27 15.13 177.33 14.71Q176.39 14.28 175.12 14.28ZM195.52 34.18L189.84 34.18L189.84 10.58L193.31 10.58Q194.42 10.58 194.76 11.61L194.76 11.61L195.13 13.36Q195.75 12.67 196.43 12.10Q197.11 11.52 197.88 11.11Q198.65 10.69 199.54 10.45Q200.42 10.21 201.48 10.21L201.48 10.21Q203.71 10.21 205.15 11.42Q206.59 12.63 207.30 14.63L207.30 14.63Q207.85 13.45 208.68 12.62Q209.51 11.78 210.50 11.25Q211.49 10.72 212.60 10.46Q213.72 10.21 214.84 10.21L214.84 10.21Q216.80 10.21 218.32 10.81Q219.83 11.41 220.87 12.56Q221.90 13.71 222.44 15.36Q222.99 17.02 222.99 19.16L222.99 19.16L222.99 34.18L217.30 34.18L217.30 19.16Q217.30 16.90 216.31 15.77Q215.33 14.63 213.42 14.63L213.42 14.63Q212.54 14.63 211.80 14.93Q211.05 15.23 210.48 15.79Q209.92 16.35 209.60 17.20Q209.28 18.05 209.28 19.16L209.28 19.16L209.28 34.18L203.57 34.18L203.57 19.16Q203.57 16.79 202.62 15.71Q201.66 14.63 199.80 14.63L199.80 14.63Q198.58 14.63 197.51 15.24Q196.44 15.85 195.52 16.90L195.52 16.90L195.52 34.18Z"></path></g></svg><!----></svg>